<svg data-v-423bf9ae="" xmlns="http://www.w3.org/2000/svg" viewBox="0 0 579 90" class="iconLeft"><g data-v-423bf9ae="" id="c5672b0d-5722-4352-a4d5-879aed827adf" fill="white" transform="matrix(4.636785312648574,0,0,4.636785312648574,104.43587139092821,-1.8778997397146853)"><path d="M2.65 13.75L1.20 13.75L1.20 3.95L4.45 3.95Q6.12 3.95 6.90 4.81Q7.67 5.67 7.67 6.93L7.67 6.93Q7.67 8.11 6.87 9.01Q6.06 9.91 4.45 9.91L4.45 9.91L2.65 9.91L2.65 13.75ZM2.65 5.28L2.65 8.58L4.54 8.58Q5.39 8.58 5.80 8.09Q6.22 7.60 6.22 6.93L6.22 6.93Q6.22 6.29 5.82 5.78Q5.43 5.28 4.54 5.28L4.54 5.28L2.65 5.28ZM13.66 5.19Q13.41 5.43 13.05 5.43Q12.68 5.43 12.44 5.18Q12.19 4.93 12.19 4.58Q12.19 4.23 12.44 3.98Q12.68 3.72 13.05 3.72Q13.41 3.72 13.66 3.97Q13.90 4.21 13.90 4.58Q13.90 4.94 13.66 5.19ZM13.75 6.59L13.75 12.50L15.72 12.50L15.72 13.75L10.37 13.75L10.37 12.50L12.35 12.50L12.35 7.83L10.37 7.83L10.37 6.59L13.75 6.59ZM19.98 15.92L18.58 16.58L18.58 6.59L19.98 6.59L19.98 7.17Q20.72 6.43 21.83 6.43L21.83 6.43Q23.27 6.43 24.11 7.42Q24.95 8.41 24.95 10.16Q24.95 11.91 24.08 12.92Q23.21 13.92 21.84 13.92L21.84 13.92Q20.65 13.92 19.98 13.12L19.98 13.12L19.98 15.92ZM21.64 12.60L21.64 12.60Q22.54 12.60 23.03 11.97Q23.52 11.34 23.52 10.16L23.52 10.16Q23.52 9.04 23.02 8.39Q22.53 7.74 21.62 7.74L21.62 7.74Q20.52 7.74 19.98 8.58L19.98 8.58L19.98 11.75Q20.62 12.60 21.64 12.60ZM33.38 9.84L33.38 9.84Q33.38 10.37 33.33 10.72L33.33 10.72L28.41 10.72Q28.56 11.62 29.06 12.14Q29.55 12.66 30.35 12.66L30.35 12.66Q31.29 12.66 31.98 12.01L31.98 12.01L32.80 12.91Q31.79 13.92 30.34 13.92L30.34 13.92Q28.78 13.92 27.89 12.87Q26.99 11.83 26.99 10.16L26.99 10.16Q26.99 8.41 27.89 7.42Q28.80 6.43 30.34 6.43L30.34 6.43Q31.67 6.43 32.52 7.29Q33.38 8.16 33.38 9.84ZM28.38 9.51L28.38 9.51L31.99 9.51Q31.95 8.55 31.47 8.11Q31.00 7.66 30.34 7.66L30.34 7.66Q29.47 7.66 28.98 8.14Q28.49 8.62 28.38 9.51ZM39.51 3.64L39.51 12.50L41.55 12.50L41.55 13.75L36.05 13.75L36.05 12.50L38.11 12.50L38.11 4.87L36.41 4.87L35.77 3.64L39.51 3.64ZM48.15 5.19Q47.91 5.43 47.54 5.43Q47.18 5.43 46.94 5.18Q46.69 4.93 46.69 4.58Q46.69 4.23 46.94 3.98Q47.18 3.72 47.54 3.72Q47.91 3.72 48.15 3.97Q48.40 4.21 48.40 4.58Q48.40 4.94 48.15 5.19ZM48.24 6.59L48.24 12.50L50.22 12.50L50.22 13.75L44.87 13.75L44.87 12.50L46.84 12.50L46.84 7.83L44.87 7.83L44.87 6.59L48.24 6.59ZM56.43 6.43L56.43 6.43Q59.08 6.43 59.08 9.51L59.08 9.51L59.08 13.75L57.68 13.75L57.68 9.60Q57.68 7.74 56.11 7.74L56.11 7.74Q54.45 7.74 54.45 9.58L54.45 9.58L54.45 13.75L53.05 13.75L53.05 6.59L54.35 6.59L54.35 7.46Q54.61 7.00 55.17 6.71Q55.73 6.43 56.43 6.43ZM67.87 9.84L67.87 9.84Q67.87 10.37 67.83 10.72L67.83 10.72L62.90 10.72Q63.06 11.62 63.55 12.14Q64.05 12.66 64.85 12.66L64.85 12.66Q65.79 12.66 66.47 12.01L66.47 12.01L67.30 12.91Q66.29 13.92 64.83 13.92L64.83 13.92Q63.28 13.92 62.38 12.87Q61.49 11.83 61.49 10.16L61.49 10.16Q61.49 8.41 62.39 7.42Q63.29 6.43 64.83 6.43L64.83 6.43Q66.16 6.43 67.02 7.29Q67.87 8.16 67.87 9.84ZM62.87 9.51L62.87 9.51L66.49 9.51Q66.44 8.55 65.97 8.11Q65.49 7.66 64.83 7.66L64.83 7.66Q63.97 7.66 63.48 8.14Q62.99 8.62 62.87 9.51ZM73.50 13.92L73.50 13.92Q72.27 13.92 71.41 13.17Q70.55 12.42 70.18 11.31Q69.80 10.19 69.80 8.85L69.80 8.85Q69.80 7.53 70.19 6.41Q70.57 5.28 71.44 4.53Q72.31 3.78 73.50 3.78L73.50 3.78Q74.59 3.78 75.25 4.27Q75.91 4.76 76.37 5.61L76.37 5.61L75.10 6.34Q74.44 5.12 73.50 5.12L73.50 5.12Q72.73 5.12 72.21 5.72Q71.69 6.31 71.49 7.12Q71.29 7.92 71.29 8.85L71.29 8.85Q71.29 10.40 71.86 11.48Q72.42 12.56 73.50 12.56L73.50 12.56Q74.30 12.56 74.73 12.01Q75.17 11.45 75.17 10.54L75.17 10.54L75.17 10.21L73.43 10.21L73.43 8.88L76.65 8.88L76.65 10.14Q76.65 11.91 75.77 12.92Q74.89 13.92 73.50 13.92ZM83.73 6.43L83.73 6.43Q84.73 6.43 85.36 6.79L85.36 6.79L85.36 9.35L83.99 9.35L83.99 7.77Q83.89 7.76 83.69 7.76L83.69 7.76Q82.61 7.76 81.94 8.29Q81.26 8.82 81.26 9.81L81.26 9.81L81.26 12.50L83.30 12.50L83.30 13.75L78.33 13.75L78.33 12.50L79.83 12.50L79.83 7.83L78.33 7.83L78.33 6.59L81.16 6.59L81.16 7.77Q81.49 7.15 82.22 6.79Q82.94 6.43 83.73 6.43ZM91.27 5.19Q91.03 5.43 90.66 5.43Q90.30 5.43 90.05 5.18Q89.81 4.93 89.81 4.58Q89.81 4.23 90.05 3.98Q90.30 3.72 90.66 3.72Q91.03 3.72 91.27 3.97Q91.52 4.21 91.52 4.58Q91.52 4.94 91.27 5.19ZM91.36 6.59L91.36 12.50L93.34 12.50L93.34 13.75L87.99 13.75L87.99 12.50L89.96 12.50L89.96 7.83L87.99 7.83L87.99 6.59L91.36 6.59ZM98.94 13.92L98.94 13.92Q97.50 13.92 96.66 12.92Q95.83 11.93 95.83 10.16L95.83 10.16Q95.83 8.43 96.68 7.43Q97.52 6.43 98.91 6.43L98.91 6.43Q100.09 6.43 100.76 7.10L100.76 7.10L100.76 4.30L102.16 3.64L102.16 13.75L100.76 13.75L100.76 13.17Q100.13 13.92 98.94 13.92ZM99.12 12.60L99.12 12.60Q100.25 12.60 100.76 11.75L100.76 11.75L100.76 8.55Q100.24 7.74 99.11 7.74L99.11 7.74Q98.21 7.74 97.73 8.37Q97.24 8.99 97.24 10.16L97.24 10.16Q97.24 11.24 97.75 11.92Q98.25 12.60 99.12 12.60Z"></path></g><g data-v-423bf9ae="" id="d21b535b-bf90-4403-bb91-ad38d7584e23" transform="matrix(2.8125,0,0,2.8125,0,0)" stroke="none" fill="white"><path d="M9.382 8.675h13.943v13.943L32 31.293V0H.707zM22.618 23.325H8.675V9.382L0 .707V32h31.293z"></path></g></svg>